Coordinates
version=1
nRows=13
nColumns=22
inDegrees=yes

Units are S.I. units (second, meters, Newtons, ...)
If the header above contains a line with 'inDegrees', this indicates whether rotational values are in degrees (yes) or radians (no).

endheader
time	pelvis_tilt	pelvis_list	pelvis_rotation	pelvis_tx	pelvis_ty	pelvis_tz	hip_flexion_r	hip_adduction_r	hip_rotation_r	knee_angle_r	ankle_angle_r	subtalar_angle_r	hip_flexion_l	hip_adduction_l	hip_rotation_l	knee_angle_l	ankle_angle_l	subtalar_angle_l	lumbar_extension	lumbar_bending	lumbar_rotation
      1.78000000	     -4.54518251	     -3.44820506	      5.27354175	      0.99819832	      1.01169871	      0.14864382	     10.79091029	      3.77592662	     -6.91718632	    -17.99318318	      8.26947850	     -2.20933547	      9.23367348	     -7.14872577	     -4.27309131	    -15.03197219	      9.11104121	      3.34255462	     -3.83358825	      1.37658740	     -1.88094311
      1.79000000	     -4.83439128	     -3.50657032	      5.80250686	      0.99572378	      1.01114720	      0.14908622	     11.33987965	      3.74934970	     -7.40078445	    -18.17206399	      8.23484991	     -2.23619332	     10.27082993	     -7.17492620	     -3.69632392	    -15.85439574	      9.14549200	      3.48478724	     -3.75055795	      1.55044102	     -2.07682209
      1.80000000	     -5.10000093	     -3.57999413	      6.37648757	      0.99319298	      1.01062738	      0.14937061	     11.83984945	      3.71791508	     -7.92477687	    -18.30075250	      8.19294711	     -2.25179488	     11.34050650	     -7.18843933	     -3.08176723	    -16.75636598	      9.19099249	      3.64629767	     -3.68996826	      1.75329973	     -2.29525572
      1.81000000	     -5.33039497	     -3.66434548	      6.98679988	      0.99061165	      1.01015520	      0.14951630	     12.28197417	      3.68104691	     -8.48016591	    -18.38729918	      8.14685509	     -2.25710450	     12.41632205	     -7.18802007	     -2.45516708	    -17.72007659	      9.25123599	      3.84336669	     -3.66494025	      1.97636806	     -2.52253252
      1.82000000	     -5.51352527	     -3.75374113	      7.62314709	      0.98801955	      1.00976027	      0.14952546	     12.64609121	      3.63698483	     -9.06394223	    -18.42295426	      8.09864749	     -2.25103187	     13.46677836	     -7.17163256	     -1.85022197	    -18.72368129	      9.33182068	      4.09112209	     -3.68120758	      2.21509299	     -2.75510906
      1.83000000	     -5.64242320	     -3.84277345	      8.27674928	      0.98543333	      1.00945871	      0.14942690	     12.92251203	      3.58702270	     -9.66300570	    -18.40571011	      8.04750805	     -2.23313097	     14.46546278	     -7.14304406	     -1.30249006	    -19.74568544	      9.44078579	      4.40444165	     -3.74493278	      2.45876040	     -2.98457611
      1.84000000	     -5.67735964	     -3.92393069	      8.94439215	      0.98287356	      1.00931870	      0.14921971	     13.06557413	      3.53390984	    -10.27603479	    -18.33256123	      8.00260304	     -2.20280175	     15.34387938	     -7.10298087	     -0.80697074	    -20.75591045	      9.58881417	      4.70728437	     -3.90183320	      2.70722661	     -3.21023318
      1.85000000	     -5.72246314	     -3.99288551	      9.57351635	      0.98035613	      1.00919846	      0.14902951	     13.18929708	      3.47464023	    -10.83924109	    -18.20891851	      7.92988856	     -2.16430679	     16.20859132	     -7.06717639	     -0.50593850	    -21.77753100	      9.77189318	      5.22586749	     -4.02139421	      2.92556611	     -3.38569072
      1.86000000	     -5.65208148	     -4.04532746	     10.20192491	      0.97789996	      1.00929009	      0.14877396	     13.15103676	      3.42005325	    -11.40138181	    -18.02302298	      7.86825284	     -2.11873474	     16.89439936	     -7.03302494	     -0.27075032	    -22.76408623	     10.00083522	      5.55424116	     -4.25497338	      3.13972074	     -3.55351215
      1.87000000	     -5.59286580	     -4.07572510	     10.75610863	      0.97551814	      1.00942969	      0.14860155	     13.09389926	      3.36170263	    -11.89247438	    -17.78697330	      7.76148802	     -2.06329629	     17.52971158	     -7.01770880	     -0.25263578	    -23.74830303	     10.24964387	      6.08363732	     -4.44811822	      3.30767823	     -3.64099315
      1.88000000	     -5.47034929	     -4.09782069	     11.26858159	      0.97320153	      1.00970182	      0.14848423	     12.94363579	      3.32577507	    -12.33133340	    -17.50760128	      7.66123381	     -2.01003376	     18.02958860	     -7.03461782	     -0.33222325	    -24.72349389	     10.54365320	      6.33566382	     -4.68919499	      3.45949643	     -3.68948900
      1.89000000	     -5.35122538	     -4.10123036	     11.68493475	      0.97097654	      1.01003979	      0.14847307	     12.77682085	      3.29396213	    -12.69921194	    -17.19692436	      7.52729589	     -1.95251975	     18.44973119	     -7.08373034	     -0.57579047	    -25.70387221	     10.83706410	      6.55903364	     -4.89395974	      3.57260545	     -3.64360628
      1.90000000	     -5.24006568	     -4.09374129	     12.01341066	      0.96884952	      1.01042857	      0.14860426	     12.60137466	      3.27517810	    -12.99585084	    -16.85828351	      7.36188143	     -1.89185913	     18.79201323	     -7.17138785	     -0.92899902	    -26.69215407	     11.11862999	      6.71183481	     -5.05456843	      3.64283764	     -3.51689478
